<svg xmlns="http://www.w3.org/2000/svg" xmlns:xlink="http://www.w3.org/1999/xlink" width="136" height="139" viewBox="0 0 136 139">
  <defs>
    <linearGradient id="linear-gradient" x1="0.5" y1="-0.145" x2="0.5" y2="1" gradientUnits="objectBoundingBox">
      <stop offset="0" stop-color="#ff4099"/>
      <stop offset="0.364" stop-color="#bf0edc"/>
      <stop offset="1" stop-color="#3b1e5c"/>
    </linearGradient>
    <filter id="silhouette" x="0" y="0" width="136" height="139" filterUnits="userSpaceOnUse">
      <feOffset dx="5" dy="5" input="SourceAlpha"/>
      <feGaussianBlur stdDeviation="15" result="blur"/>
      <feFlood flood-color="#123219"/>
      <feComposite operator="in" in2="blur"/>
      <feComposite in="SourceGraphic"/>
    </filter>
  </defs>
  <g id="profile_pic-default" transform="translate(17 18)">
    <circle id="Mask" cx="46" cy="46" r="46" fill="url(#linear-gradient)"/>
    <g transform="matrix(1, 0, 0, 1, -17, -18)" filter="url(#silhouette)">
      <path id="silhouette-2" data-name="silhouette" d="M6,49a6,6,0,0,1-6-6V38A11,11,0,0,1,11,27H35A11,11,0,0,1,46,38v5a6,6,0,0,1-6,6Zm6-38A11,11,0,1,1,23,22,11,11,0,0,1,12,11Z" transform="translate(40 40)" fill="#fff"/>
    </g>
  </g>
</svg>
