<svg xmlns="http://www.w3.org/2000/svg" width="207.237" height="35.274" viewBox="0 0 207.237 35.274">
  <g id="Mega_Quiz_logo_dark" data-name="Mega Quiz logo dark" transform="translate(-4.21 -3.54)">
    <g id="Group_5" data-name="Group 5" transform="translate(117.98 3.54)">
      <path id="Path_76" data-name="Path 76" d="M467.191,14a14.848,14.848,0,0,1,9.7-3.079,28,28,0,0,1,4.326.312A11.337,11.337,0,0,1,488,14.74c1.753,2.144,2.65,5.221,2.65,9.2,0,7.95-2.454,12.43-6.664,14.106a13.71,13.71,0,0,1,1.753,3.352c0,1.13-1.287,1.988-3.039,2.338a20.074,20.074,0,0,1-4.13.506c-2.221,0-2.806-.312-3.389-1.676L473.5,38.978c-6.351,0-10.365-4.559-10.365-14.535C463.138,19.649,464.657,16.064,467.191,14Zm7.326,10.132a29,29,0,0,0,.585,7.249c.389,1.207.974,1.832,1.792,1.832s1.4-.622,1.792-1.832a21.278,21.278,0,0,0,.585-5.846,37.591,37.591,0,0,0-.312-5.729,4.516,4.516,0,0,0-.778-2.221,1.957,1.957,0,0,0-2.571-.04C474.868,18.325,474.516,20.506,474.516,24.131Z" transform="translate(-463.14 -9.09)" fill="#e52431"/>
      <path id="Path_77" data-name="Path 77" d="M583.85,18.314c0-.647.724-1.22,2.132-1.713a15.489,15.489,0,0,1,5.027-.761c1.525,0,2.514.3,2.972.875a2.027,2.027,0,0,1,.5,1.18V29.247a35.148,35.148,0,0,0,.3,5.714c.228.915.687,1.371,1.411,1.371s1.143-.456,1.334-1.334a35.275,35.275,0,0,0,.3-5.791V18.314c0-.647.724-1.22,2.132-1.713a15.418,15.418,0,0,1,4.99-.761c1.6,0,2.628.3,3.047.875a2.2,2.2,0,0,1,.456,1.18v14.4c0,7.313-4.3,10.933-12.266,10.933-7.923,0-12.341-3.619-12.341-10.933Z" transform="translate(-553.926 -12.791)" fill="#e52431"/>
      <path id="Path_78" data-name="Path 78" d="M703.247,25.938c-.04,1.463-2.008,2.883-5.422,2.883-2.33,0-3.535-.709-3.654-2.085L693.086,4.6c-.04-.31.724-.578,2.291-.754a39.787,39.787,0,0,1,5.461-.31c2.087,0,3.134.355,3.134,1.019C703.969,5.4,703.728,12.544,703.247,25.938Z" transform="translate(-636.08 -3.54)" fill="#e52431"/>
      <path id="Path_79" data-name="Path 79" d="M700.589,113.99c3.253,0,4.9,1.316,4.9,3.947,0,2.982-1.807,3.947-4.98,3.947-3.091,0-4.819-.746-4.819-3.947C695.688,115.3,697.334,113.99,700.589,113.99Z" transform="translate(-638.04 -86.609)"/>
      <path id="Path_80" data-name="Path 80" d="M761.768,33.941h8.2c.583,0,1.011,1.594,1.011,4.39a11.681,11.681,0,0,1-.506,3.652c-.31,1.049-.739,1.594-1.282,1.594H750.267c-.739,0-1.282-.739-1.631-2.253a24.43,24.43,0,0,1-.466-4.9c0-.776,2.876-4.234,8.741-10.452h-7.539q-1.048,0-1.049-3.381a18.3,18.3,0,0,1,.506-4.467c.35-1.438.778-2.137,1.282-2.137h17.911c1.321,0,1.981,2.643,1.981,7.888C770.005,24.81,767.246,28.189,761.768,33.941Z" transform="translate(-677.51 -12.904)" fill="#e52431"/>
    </g>
    <g id="Group_6" data-name="Group 6" transform="translate(4.21 6.304)">
      <path id="Path_81" data-name="Path 81" d="M4.21,44.453V17.31h7.162l7.08,10.417,7.04-10.417h7.162V44.453H23.988V34.686l-5.533,8.139-5.575-8.139v9.767Z" transform="translate(-4.21 -16.66)"/>
      <path id="Path_82" data-name="Path 82" d="M130.45,44.453V17.31h15.992v7.122h-7.326v3.012h7.2V34.2h-7.2v3.133h7.611v7.122H130.45Z" transform="translate(-99.155 -16.66)"/>
      <path id="Path_83" data-name="Path 83" d="M223.867,17.578l-4.923,7a5.866,5.866,0,0,0-3.989-1.344,5.056,5.056,0,0,0-3.865,1.606,5.742,5.742,0,0,0-1.5,4.09A5.451,5.451,0,0,0,211.254,33a5.557,5.557,0,0,0,4.028,1.629,5.476,5.476,0,0,0,4.477-2.2h-2.442v-5.7h10.459v9.034a14.3,14.3,0,0,1-5.208,5.392,14.275,14.275,0,0,1-17.356-2.115,13.686,13.686,0,0,1-4.172-10.112,14.021,14.021,0,0,1,3.989-10.092,13.116,13.116,0,0,1,9.849-4.15,16.586,16.586,0,0,1,3.215.3,14.715,14.715,0,0,1,2.563.711,15.36,15.36,0,0,1,1.77.833,7.229,7.229,0,0,1,1.078.711Z" transform="translate(-152.245 -14.69)"/>
      <path id="Path_84" data-name="Path 84" d="M304.78,44.453l10.3-27.143h6.512l10.293,27.143h-8.545l-.895-2.442h-8.22l-.895,2.442ZM316.5,36.029h3.662l-1.832-4.762Z" transform="translate(-230.268 -16.66)"/>
    </g>
  </g>
</svg>
