<svg xmlns="http://www.w3.org/2000/svg" width="140" height="34" viewBox="0 0 140 34">
  <g id="powered_by" data-name="powered by" transform="translate(-157.487 -715.854)">
    <rect id="Rectangle_471" data-name="Rectangle 471" width="140" height="34" rx="6" transform="translate(157.487 715.854)" fill="#fff"/>
    <g id="powered-by" transform="translate(164.734 723.913)">
      <text id="POWERED_BY-2" data-name="POWERED BY" transform="translate(0 11.427)" fill="#2da836" font-size="7" font-family="FuturaLT-Book, Futura LT"><tspan x="0" y="0">POWERED BY</tspan></text>
      <g id="safaricom" transform="translate(46.344 0)">
        <path id="Path_85" data-name="Path 85" d="M435.811,149.443c-1.195-2.067-8.149-.285-15.533,3.983s-12.4,9.4-11.208,11.467c1.027,1.777,6.308.706,12.461-2.336.274-.151.255-.476-.1-.359-3.792,1.4-6.955,1.484-7.775,0-1.087-1.968,2.359-5.954,7.7-8.9s10.547-3.744,11.635-1.777c.5.9.043,2.225-1.107,3.679a.211.211,0,0,1-.015.022c-.425.528-.116.687.188.43,2.944-2.608,4.477-4.964,3.76-6.208" transform="translate(-408.894 -148.582)" fill="#e52931"/>
        <path id="Path_86" data-name="Path 86" d="M443.375,170.244a4.822,4.822,0,0,1-1.608-.72l.747-1.685a5.609,5.609,0,0,0,1.4.64,5.173,5.173,0,0,0,1.488.222,2.615,2.615,0,0,0,1.166-.21.625.625,0,0,0,.038-1.154,5.062,5.062,0,0,0-1.381-.435,7.578,7.578,0,0,1-1.987-.627,2.353,2.353,0,0,1-.995-.879,2.477,2.477,0,0,1-.284-1.228,2.511,2.511,0,0,1,.47-1.487,3.083,3.083,0,0,1,1.316-1.039,4.755,4.755,0,0,1,1.937-.372,6.631,6.631,0,0,1,1.893.271,3.907,3.907,0,0,1,1.436.715l-.734,1.685a4.915,4.915,0,0,0-1.253-.641,4.121,4.121,0,0,0-1.317-.221,1.945,1.945,0,0,0-1.039.246.754.754,0,0,0-.391.665.543.543,0,0,0,.139.38,1.414,1.414,0,0,0,.517.3,8.518,8.518,0,0,0,1.141.31,7.781,7.781,0,0,1,1.932.638,2.44,2.44,0,0,1,.993.875,2.332,2.332,0,0,1,.292,1.2,2.427,2.427,0,0,1-1.026,2.07,4.8,4.8,0,0,1-2.887.753,7.681,7.681,0,0,1-2-.265" transform="translate(-427.532 -155.775)" fill="#2da736"/>
        <path id="Path_87" data-name="Path 87" d="M465.721,171.672a1.913,1.913,0,0,0,.328-1.2,1.956,1.956,0,0,0-.328-1.222,1.232,1.232,0,0,0-1.874.012,1.958,1.958,0,0,0-.342,1.235,1.853,1.853,0,0,0,.329,1.183,1.148,1.148,0,0,0,.949.411,1.126,1.126,0,0,0,.938-.416m2.583-4.407V173.7h-2.254v-.873a1.86,1.86,0,0,1-.809.715,2.622,2.622,0,0,1-1.164.262,2.651,2.651,0,0,1-2.477-1.565,4,4,0,0,1-.361-1.74,4.072,4.072,0,0,1,.369-1.773,2.894,2.894,0,0,1,1.011-1.2,2.578,2.578,0,0,1,1.458-.429,2.478,2.478,0,0,1,1.158.271,2.074,2.074,0,0,1,.816.728v-.822Z" transform="translate(-438.571 -159.075)" fill="#2da736"/>
        <path id="Path_88" data-name="Path 88" d="M481.019,163.632v-.176a2.9,2.9,0,0,1,.677-2.039,2.551,2.551,0,0,1,1.969-.736,3.349,3.349,0,0,1,1.191.178v1.76a2.684,2.684,0,0,0-.607-.089.98.98,0,0,0-.672.234.905.905,0,0,0-.265.714v.153h1.252v1.684h-1.252v4.747h-2.293v-4.747s.033-1.684,0-1.684" transform="translate(-449.787 -155.442)" fill="#2da736"/>
        <path id="Path_89" data-name="Path 89" d="M495.3,171.672a1.9,1.9,0,0,0,.33-1.2,1.947,1.947,0,0,0-.33-1.222,1.113,1.113,0,0,0-.936-.426,1.126,1.126,0,0,0-.937.438,1.967,1.967,0,0,0-.341,1.235,1.858,1.858,0,0,0,.33,1.183,1.143,1.143,0,0,0,.948.411,1.121,1.121,0,0,0,.936-.416m2.584-4.407V173.7h-2.254v-.873a1.876,1.876,0,0,1-.811.715,2.61,2.61,0,0,1-1.164.262,2.651,2.651,0,0,1-2.475-1.565,3.983,3.983,0,0,1-.36-1.74,4.1,4.1,0,0,1,.367-1.773,2.908,2.908,0,0,1,1.013-1.2,2.577,2.577,0,0,1,1.455-.429,2.473,2.473,0,0,1,1.159.271,2.087,2.087,0,0,1,.817.728v-.822Z" transform="translate(-455.342 -159.075)" fill="#2da736"/>
        <path id="Path_90" data-name="Path 90" d="M514.922,167.283v2.09a2.449,2.449,0,0,0-1.046-.255q-1.437,0-1.438,1.381v3.227h-2.283v-4.584a15.306,15.306,0,0,0-.1-1.847H512.2l.139,1.076a1.8,1.8,0,0,1,.731-.913,2.1,2.1,0,0,1,1.133-.316,1.519,1.519,0,0,1,.72.139" transform="translate(-466.25 -159.106)" fill="#2da736"/>
        <rect id="Rectangle_6" data-name="Rectangle 6" width="2.292" height="6.431" transform="translate(49.35 8.19)" fill="#2da736"/>
        <path id="Path_91" data-name="Path 91" d="M531.565,172.911a3.2,3.2,0,0,1-.923-2.418,3.486,3.486,0,0,1,.447-1.785,3.082,3.082,0,0,1,1.261-1.2,3.975,3.975,0,0,1,1.874-.424,4.781,4.781,0,0,1,1.394.207,2.94,2.94,0,0,1,1.087.565l-.583,1.58a2.732,2.732,0,0,0-.8-.44,2.564,2.564,0,0,0-.875-.166,1.422,1.422,0,0,0-1.088.405,1.7,1.7,0,0,0-.381,1.2,1.748,1.748,0,0,0,.381,1.223,1.428,1.428,0,0,0,1.1.41,2.508,2.508,0,0,0,.867-.165,2.7,2.7,0,0,0,.79-.443l.583,1.556a2.876,2.876,0,0,1-1.107.57,5.223,5.223,0,0,1-1.475.2,3.544,3.544,0,0,1-2.558-.886" transform="translate(-477.922 -159.074)" fill="#2da736"/>
        <path id="Path_92" data-name="Path 92" d="M550.471,170.442a2,2,0,0,0-.313-1.234,1.1,1.1,0,0,0-.928-.4,1.14,1.14,0,0,0-.951.4,1.976,1.976,0,0,0-.318,1.234,2,2,0,0,0,.318,1.248,1.141,1.141,0,0,0,.951.4q1.241,0,1.242-1.647m-3.116,2.95a2.863,2.863,0,0,1-1.229-1.165,3.919,3.919,0,0,1,0-3.571,2.873,2.873,0,0,1,1.229-1.163,4.073,4.073,0,0,1,1.874-.405,3.954,3.954,0,0,1,1.853.412,2.912,2.912,0,0,1,1.221,1.165,3.889,3.889,0,0,1,0,3.557,2.909,2.909,0,0,1-1.221,1.164,3.943,3.943,0,0,1-1.853.413,4.079,4.079,0,0,1-1.874-.406" transform="translate(-486.457 -159.074)" fill="#2da736"/>
        <path id="Path_93" data-name="Path 93" d="M574.148,167.771a3.344,3.344,0,0,1,.538,2.088V173.7H572.4v-3.773a1.5,1.5,0,0,0-.171-.822.645.645,0,0,0-.576-.253.883.883,0,0,0-.748.354,1.635,1.635,0,0,0-.266,1V173.7h-2.291v-3.773a1.473,1.473,0,0,0-.178-.822.646.646,0,0,0-.569-.253.863.863,0,0,0-.741.354,1.663,1.663,0,0,0-.259,1V173.7H564.3v-4.583a14.73,14.73,0,0,0-.1-1.848h2.153l.114.9a1.981,1.981,0,0,1,.817-.8,2.558,2.558,0,0,1,1.208-.278,1.851,1.851,0,0,1,1.875,1.164,2.549,2.549,0,0,1,.905-.848,2.459,2.459,0,0,1,1.222-.316,1.975,1.975,0,0,1,1.652.683" transform="translate(-496.95 -159.074)" fill="#2da736"/>
        <rect id="Rectangle_7" data-name="Rectangle 7" width="2.292" height="2.063" transform="translate(49.35 5.037)" fill="#2da736"/>
      </g>
    </g>
  </g>
</svg>
